<svg aria-label="Speakeasy Logo" xmlns="http://www.w3.org/2000/svg" width="166" height="40" viewBox="0 -10 166 40" fill="white" class="z-10"><g opacity="1"><path d="M142.736 9.10949L139.764 8.0584C138.954 7.76642 138.353 7.41606 137.963 6.9781C137.573 6.54015 137.363 5.95621 137.363 5.22628C137.363 4.40876 137.663 3.73723 138.233 3.21168C138.804 2.68613 139.584 2.42336 140.485 2.42336C141.505 2.42336 142.316 2.71533 142.916 3.29928C143.516 3.88321 143.817 4.64234 143.817 5.54744V5.83942H146.578V5.54744C146.578 4.46715 146.338 3.50365 145.828 2.65694C145.318 1.81022 144.597 1.16788 143.697 0.700728C142.766 0.233582 141.715 0 140.515 0C139.374 0 138.323 0.233582 137.423 0.700728C136.522 1.16788 135.832 1.81022 135.322 2.59854C134.811 3.41606 134.571 4.35037 134.571 5.37227C134.571 6.54015 134.901 7.56205 135.532 8.46715C136.162 9.37226 137.243 10.073 138.744 10.5985L141.385 11.5037C142.256 11.8248 142.886 12.2336 143.276 12.7007C143.697 13.1679 143.907 13.8102 143.907 14.5985C143.907 15.1533 143.757 15.6788 143.486 16.1168C143.216 16.5839 142.826 16.9343 142.316 17.1971C141.805 17.4599 141.265 17.5766 140.665 17.5766C139.674 17.5766 138.864 17.2847 138.233 16.7007C137.603 16.1168 137.303 15.3577 137.303 14.3942V14.073H134.571V14.3358C134.571 15.4453 134.811 16.4088 135.322 17.2847C135.832 18.1314 136.552 18.8029 137.483 19.2701C138.413 19.7372 139.464 19.9708 140.665 19.9708C141.865 19.9708 142.916 19.7372 143.817 19.2701C144.747 18.8029 145.438 18.1314 145.948 17.2847C146.458 16.438 146.698 15.4453 146.698 14.365C146.698 13.1679 146.398 12.0876 145.768 11.1825C145.167 10.3358 144.147 9.63504 142.736 9.10949Z" ></path><path d="M5.16311 8.0584L8.13489 9.10949C9.57578 9.63504 10.5964 10.3358 11.1967 11.2117C11.8271 12.1168 12.1273 13.1971 12.1273 14.3942C12.1273 15.4745 11.8872 16.4672 11.3769 17.3139C10.8665 18.1606 10.1761 18.8321 9.24557 19.2993C8.34502 19.7664 7.29439 20 6.09367 20C4.89294 20 3.84231 19.7664 2.91176 19.2993C1.98119 18.8321 1.26076 18.1606 0.750452 17.3139C0.240141 16.438 0 15.4745 0 14.365V14.1022H2.73164V14.4234C2.73164 15.3869 3.03182 16.146 3.66221 16.7299C4.29258 17.3139 5.10307 17.6058 6.09367 17.6058C6.69403 17.6058 7.23435 17.4891 7.74466 17.2263C8.25497 16.9635 8.6452 16.6131 8.91537 16.146C9.18553 15.708 9.33562 15.1825 9.33562 14.6277C9.33562 13.8394 9.15551 13.1971 8.73525 12.7299C8.34502 12.2628 7.71465 11.854 6.84412 11.5328L4.20253 10.6277C2.70163 10.1022 1.62098 9.37226 0.960582 8.49635C0.330192 7.59124 0 6.56934 0 5.40146C0 4.37956 0.240141 3.44526 0.750452 2.62774C1.26076 1.83942 1.95118 1.19708 2.85172 0.729927C3.75226 0.262772 4.80289 0.0291989 5.94358 0.0291989C7.1443 0.0291989 8.19493 0.262772 9.1255 0.700728C10.026 1.16788 10.7465 1.81022 11.2568 2.65694C11.7671 3.50365 12.0072 4.46715 12.0072 5.54744V5.83942H9.21556V5.54744C9.21556 4.64234 8.91537 3.88321 8.31501 3.29928C7.71465 2.71533 6.90416 2.42336 5.88354 2.42336C4.98299 2.42336 4.20253 2.68613 3.63218 3.21168C3.06185 3.73723 2.76167 4.40876 2.76167 5.22628C2.76167 5.95621 2.9718 6.54015 3.36203 6.9781C3.75226 7.41606 4.35262 7.76642 5.16311 8.0584Z" ></path><path d="M128.417 13.7226L127.487 11.2701H122.714L121.783 13.7226H125.145L127.427 19.7664H129.828L129.798 17.4015L128.417 13.7226Z" ></path><path fill-rule="evenodd" clip-rule="evenodd" d="M27.9769 1.0803C27.0463 0.583942 25.9656 0.32117 24.7349 0.32117H18.8514V19.7664H21.613V12.2336H24.6749C25.9056 12.2336 27.0163 12 27.9468 11.5037C28.9074 11.0073 29.6279 10.3066 30.1682 9.40146C30.6785 8.49635 30.9486 7.47445 30.9486 6.30657C30.9486 5.13869 30.6785 4.11679 30.1682 3.21168C29.6279 2.30657 28.9074 1.57664 27.9769 1.0803ZM27.1063 8.87591C26.4459 9.48905 25.5454 9.81022 24.4047 9.81022H21.613V2.74452H24.4047C25.5454 2.74452 26.4459 3.06569 27.1063 3.70803C27.7667 4.35037 28.0969 5.19708 28.0969 6.30657C28.0969 7.38686 27.7667 8.23358 27.1063 8.87591Z" ></path><path d="M37.7327 19.7664V0.32117H49.74V2.74452H40.4944V8.78832H47.9089V11.2409H40.4944V17.3431H49.74V19.7664H37.7327Z" ></path><path d="M82.5797 8.78832V8.81752H79.638V0.32117H76.8763V19.7664H79.638V11.2701H82.6698L87.3226 19.7664H89.7541V18.511L84.8911 9.95621L89.7541 1.57664V0.32117H87.3226L82.5797 8.78832Z" ></path><path d="M96.1479 19.7664V0.32117H108.155V2.74452H98.9096V8.78832H106.324V11.2409H98.9096V17.3431H108.155V19.7664H96.1479Z" ></path><path d="M159.696 8.40876L163.539 0.32117H166V1.54745L160.867 11.854V19.7664H158.105V11.9124L152.942 1.51825V0.32117H155.404L159.246 8.40876H159.696Z" ></path><path d="M68.9816 11.2701L69.9121 13.7226L71.2929 17.4015V19.7664H68.9215L66.6401 13.7226H63.2781L64.2087 11.2701H68.9816Z" ></path></g><path d="M55.2935 17.4016V19.7665H57.6949L64.1188 2.68625V0.321289H61.7473L55.2935 17.4016Z"  style="transform: none; transform-origin: 59.7061px 10.0439px;" transform-origin="59.70614814758301px 10.043894708156586px"></path><path d="M113.8 17.4016V19.7665H116.201L122.625 2.68625V0.321289H120.254L113.8 17.4016Z"  style="transform: none; transform-origin: 118.213px 10.0439px;" transform-origin="118.2125015258789px 10.043894708156586px"></path></svg>