<svg xmlns="http://www.w3.org/2000/svg" width="166" height="40" fill="none">
    <g fill="#fff" clip-path="url(#speakeasy-a)">
        <g clip-path="url(#speakeasy-b)">
            <path d="M18.976 31.904 1.067 29.36 0 30.286l18.976 2.694 7.774-6.743-1.07-.151-6.704 5.818Z" />
            <path
                  d="m18.976 27.53 7.774-6.744-1.07-.15-6.704 5.818-7.838-1.114-7.37-1.048-2.7-.384L0 24.836l2.7.382L0 27.562l18.976 2.694 7.774-6.744-1.068-.151-6.706 5.818-8.988-1.278 1.631-1.416 7.357 1.045Z" />
            <path d="M18.976 23.727 1.067 21.183 0 22.112l18.976 2.694 7.774-6.744-1.07-.15-6.704 5.815Z" />
            <path
                  d="m25.682 12.456-6.706 5.818L1.067 15.73 0 16.656l10.623 1.51L8.99 19.58l-7.923-1.125L0 19.382l18.976 2.697 7.774-6.744-2.702-.385 2.702-2.34-1.068-.154Z" />
            <path d="M26.75 9.884 7.775 7.187 0 13.931l18.976 2.694 7.774-6.74Z" />
        </g>
        <path
              d="M41.159 22.365c.038.886.424 1.608 1.155 2.167.751.558 1.714.837 2.888.837 1.04 0 1.878-.202 2.513-.606.655-.424.982-.973.982-1.647 0-.577-.154-1.02-.462-1.328-.308-.308-.712-.52-1.213-.636-.481-.115-1.175-.23-2.08-.346-1.27-.154-2.31-.357-3.119-.607-.809-.25-1.463-.645-1.964-1.184-.5-.558-.75-1.319-.75-2.282 0-.866.24-1.636.721-2.31.5-.674 1.175-1.194 2.022-1.56.847-.385 1.8-.577 2.86-.577 1.732 0 3.138.404 4.216 1.213 1.098.808 1.704 1.963 1.82 3.465h-2.369c-.096-.77-.471-1.405-1.126-1.906-.655-.5-1.473-.75-2.455-.75-1.001 0-1.81.211-2.426.635-.616.404-.924.943-.924 1.617 0 .5.144.886.433 1.155.289.27.655.453 1.097.55.463.095 1.156.201 2.08.317 1.29.154 2.35.366 3.177.635.847.27 1.521.703 2.022 1.3.52.597.78 1.405.78 2.426 0 .886-.26 1.665-.78 2.34-.52.673-1.223 1.193-2.109 1.56-.885.365-1.867.548-2.946.548-1.925 0-3.475-.443-4.65-1.329-1.155-.885-1.742-2.118-1.761-3.697h2.368ZM59.99 12.314c1.368 0 2.58.299 3.64.896 1.078.597 1.916 1.463 2.513 2.6.616 1.135.924 2.483.924 4.043 0 1.482-.308 2.792-.924 3.928a6.557 6.557 0 0 1-2.513 2.657c-1.078.635-2.291.953-3.64.953-1.193 0-2.214-.212-3.06-.635-.848-.443-1.512-1.04-1.994-1.791v8.029h-2.368V12.488h2.05l.318 2.368c1.233-1.694 2.917-2.542 5.055-2.542Zm-.23 12.968c1.463 0 2.638-.5 3.523-1.501.905-1.02 1.358-2.33 1.358-3.928 0-1.599-.453-2.898-1.358-3.9-.885-1.02-2.06-1.53-3.523-1.53-.944 0-1.791.23-2.542.693-.732.443-1.3 1.078-1.704 1.906-.404.809-.607 1.733-.607 2.773 0 1.059.203 2.012.607 2.86.404.827.972 1.472 1.704 1.934.751.462 1.598.694 2.542.694ZM68.098 19.853c0-1.502.289-2.821.867-3.957.596-1.136 1.424-2.012 2.483-2.629 1.06-.635 2.273-.953 3.64-.953 1.348 0 2.541.28 3.581.838a6.075 6.075 0 0 1 2.455 2.426c.597 1.059.915 2.301.953 3.726 0 .212-.02.549-.058 1.01H70.582v.203c.039 1.444.481 2.6 1.329 3.466.847.866 1.954 1.3 3.321 1.3 1.06 0 1.954-.26 2.686-.78.751-.54 1.252-1.28 1.502-2.224h2.397c-.289 1.502-1.01 2.734-2.166 3.697-1.155.943-2.57 1.415-4.246 1.415-1.463 0-2.743-.308-3.841-.924a6.694 6.694 0 0 1-2.57-2.657c-.597-1.156-.896-2.475-.896-3.957Zm11.524-1.502c-.115-1.252-.587-2.224-1.415-2.917-.809-.694-1.839-1.04-3.09-1.04a4.371 4.371 0 0 0-2.947 1.097c-.847.732-1.328 1.685-1.444 2.86h8.896ZM99.42 25.051v2.167h-3.319c-.943 0-1.617-.193-2.021-.578-.405-.385-.616-.953-.636-1.704-1.136 1.637-2.782 2.455-4.939 2.455-1.636 0-2.955-.385-3.956-1.155-.982-.77-1.473-1.82-1.473-3.149 0-1.482.5-2.618 1.502-3.408 1.02-.79 2.493-1.184 4.418-1.184h4.333v-1.01c0-.963-.328-1.714-.982-2.254-.636-.539-1.53-.808-2.686-.808-1.02 0-1.868.23-2.542.693-.654.443-1.059 1.04-1.213 1.79h-2.368c.173-1.443.808-2.57 1.906-3.379 1.117-.808 2.56-1.213 4.332-1.213 1.887 0 3.341.463 4.362 1.387 1.04.905 1.56 2.214 1.56 3.928v6.354c0 .712.327 1.068.981 1.068h2.741Zm-6.091-4.563h-4.564c-2.195 0-3.292.818-3.292 2.455 0 .732.289 1.319.866 1.762.578.443 1.358.664 2.34.664 1.444 0 2.58-.375 3.408-1.126.828-.77 1.242-1.781 1.242-3.033v-.722Z" />
        <path
              d="M98.236 7h2.368v13.401l7.481-7.913h2.83l-5.661 6.036 6.066 8.694h-2.86l-4.91-6.99-2.946 3.09v3.9h-2.368V7Z" />
        <path
              d="M110.635 19.853c0-1.502.289-2.821.867-3.957.597-1.136 1.425-2.012 2.484-2.629 1.059-.635 2.272-.953 3.639-.953 1.348 0 2.541.28 3.581.838a6.074 6.074 0 0 1 2.455 2.426c.597 1.059.915 2.301.953 3.726 0 .212-.019.549-.058 1.01h-11.437v.203c.039 1.444.481 2.6 1.329 3.466.847.866 1.954 1.3 3.321 1.3 1.059 0 1.954-.26 2.686-.78.751-.54 1.252-1.28 1.502-2.224h2.397c-.289 1.502-1.011 2.734-2.166 3.697-1.155.943-2.57 1.415-4.246 1.415-1.463 0-2.743-.308-3.841-.924a6.696 6.696 0 0 1-2.57-2.657c-.597-1.156-.896-2.475-.896-3.957Zm11.524-1.502c-.115-1.252-.587-2.224-1.415-2.917-.809-.694-1.839-1.04-3.09-1.04a4.37 4.37 0 0 0-2.946 1.097c-.848.732-1.329 1.685-1.445 2.86h8.896ZM139.938 25.051v2.167h-1.299c-.944 0-1.618-.193-2.022-.578-.405-.385-.616-.953-.636-1.704-1.136 1.637-2.782 2.455-4.938 2.455-1.637 0-2.956-.385-3.957-1.155-.982-.77-1.473-1.82-1.473-3.149 0-1.482.5-2.618 1.502-3.408 1.02-.79 2.493-1.184 4.419-1.184h4.332v-1.01c0-.963-.327-1.714-.982-2.254-.636-.539-1.531-.808-2.686-.808-1.021 0-1.868.23-2.542.693-.654.443-1.059 1.04-1.213 1.79h-2.368c.173-1.443.808-2.57 1.906-3.379 1.117-.808 2.561-1.213 4.332-1.213 1.887 0 3.341.463 4.362 1.387 1.039.905 1.559 2.214 1.559 3.928v6.354c0 .712.328 1.068.982 1.068h.722Zm-4.072-4.563h-4.564c-2.195 0-3.292.818-3.292 2.455 0 .732.289 1.319.866 1.762.578.443 1.358.664 2.34.664 1.444 0 2.58-.375 3.408-1.126.828-.77 1.242-1.781 1.242-3.033v-.722ZM142.452 22.365c.039.886.424 1.608 1.155 2.167.751.558 1.714.837 2.889.837 1.039 0 1.877-.202 2.512-.606.655-.424.982-.973.982-1.647 0-.577-.154-1.02-.462-1.328-.308-.308-.712-.52-1.213-.636-.481-.115-1.174-.23-2.079-.346-1.271-.154-2.311-.357-3.12-.607-.808-.25-1.463-.645-1.964-1.184-.5-.558-.75-1.319-.75-2.282 0-.866.24-1.636.722-2.31.5-.674 1.174-1.194 2.021-1.56.848-.385 1.801-.577 2.86-.577 1.733 0 3.138.404 4.217 1.213 1.097.808 1.704 1.963 1.819 3.465h-2.368c-.097-.77-.472-1.405-1.127-1.906-.654-.5-1.473-.75-2.455-.75-1.001 0-1.81.211-2.426.635-.616.404-.924.943-.924 1.617 0 .5.144.886.433 1.155.289.27.655.453 1.098.55.462.095 1.155.201 2.079.317 1.29.154 2.349.366 3.177.635.848.27 1.521.703 2.022 1.3.52.597.78 1.405.78 2.426 0 .886-.26 1.665-.78 2.34-.52.673-1.223 1.193-2.108 1.56-.886.365-1.868.548-2.946.548-1.926 0-3.476-.443-4.65-1.329-1.156-.885-1.743-2.118-1.762-3.697h2.368ZM154.563 12.488l4.534 12.015 4.39-12.015H166L159.213 29.7c-.347.886-.655 1.55-.925 1.993-.269.443-.606.77-1.01.982-.405.212-.944.318-1.618.318h-2.83v-2.166h2.108c.462 0 .809-.048 1.04-.145a1.13 1.13 0 0 0 .549-.49c.154-.212.337-.578.548-1.098l.751-1.762-5.776-14.845h2.513Z" />
    </g>
    <defs>
        <clipPath id="speakeasy-a">
            <path fill="#fff" d="M0 0h166v40H0z" />
        </clipPath>
        <clipPath id="speakeasy-b">
            <path fill="#fff" d="M0 7.187h26.75V32.98H0z" />
        </clipPath>
    </defs>
</svg>