<svg xmlns="http://www.w3.org/2000/svg" width="40" viewBox="0 0 802.1 614.06"><title>ui.dev</title><path d="M661.36,193V593.65c0,138.7-110.7,213.38-281.21,213.38C208.38,807,99,732.35,99,593.65V193H275.82V586.54c0,45.05,39.44,75.87,104.33,75.87,66.17,0,105.61-30.82,105.61-75.87V193Z" transform="translate(-98.95 -192.97)" fill="white"></path><path d="M752.45,380.19c-.53-38.12,33.17-69.21,74.3-69.21,39,0,73.77,31.09,74.3,69.21-.53,39.12-35.29,70.21-74.3,70.21-41.13,0-74.83-31.09-74.3-70.21" transform="translate(-98.95 -192.97)" fill="white"></path><path d="M725.09,762.68c13.65-46.69,30.38-114.17,30.38-179.41L755,545.8l37.54,0H863.1l36.95,0v37.47c-6.27,81.57-38.22,158.15-58.29,202.45l-8.71,20.86L807.7,807H711.26Z" transform="translate(-98.95 -192.97)" fill="white"></path></svg>